<svg width="26" height="27" viewBox="0 0 26 27" fill="none" xmlns="http://www.w3.org/2000/svg">
<path d="M20.2451 6.16251C19.2733 5.18096 18.1159 4.40271 16.8403 3.87317C15.5646 3.34362 14.1963 3.07338 12.8151 3.07819C7.02807 3.07819 2.31151 7.79475 2.31151 13.5818C2.31151 15.4367 2.79906 17.2385 3.71058 18.8283L2.22672 24.2762L7.7912 22.8136C9.32806 23.6509 11.0557 24.0961 12.8151 24.0961C18.6022 24.0961 23.3188 19.3795 23.3188 13.5924C23.3188 10.7837 22.2271 8.14452 20.2451 6.16251ZM12.8151 22.3154C11.2465 22.3154 9.70963 21.8915 8.36355 21.0965L8.04558 20.9058L4.73868 21.7749L5.6184 18.5528L5.40642 18.2242C4.53491 16.8325 4.07215 15.2239 4.07095 13.5818C4.07095 8.76987 7.99259 4.84823 12.8045 4.84823C15.1363 4.84823 17.3303 5.75974 18.9732 7.41319C19.7866 8.22292 20.4313 9.18605 20.8698 10.2468C21.3082 11.3075 21.5318 12.4447 21.5275 13.5924C21.5487 18.4044 17.6271 22.3154 12.8151 22.3154ZM17.6059 15.7864C17.3409 15.6592 16.0478 15.0233 15.8147 14.9279C15.5709 14.8431 15.4013 14.8007 15.2211 15.0551C15.0409 15.3201 14.5428 15.9136 14.3944 16.0832C14.246 16.2634 14.087 16.2846 13.8221 16.1468C13.5571 16.0196 12.7092 15.7334 11.7128 14.8431C10.9285 14.1436 10.4092 13.2851 10.2502 13.0201C10.1018 12.7551 10.229 12.6173 10.3668 12.4795C10.4834 12.3629 10.6317 12.1722 10.7589 12.0238C10.8861 11.8754 10.9391 11.7588 11.0239 11.5892C11.1087 11.409 11.0663 11.2606 11.0027 11.1334C10.9391 11.0063 10.4092 9.71318 10.1972 9.18323C9.9852 8.67448 9.76262 8.73807 9.60364 8.72747H9.09488C8.9147 8.72747 8.63913 8.79106 8.39535 9.05604C8.16217 9.32102 7.48383 9.95696 7.48383 11.25C7.48383 12.5431 8.42715 13.7938 8.55433 13.9634C8.68152 14.1436 10.4092 16.7933 13.0377 17.9274C13.6631 18.203 14.1506 18.362 14.5322 18.4786C15.1575 18.68 15.7299 18.6482 16.1856 18.5846C16.6944 18.5104 17.7437 17.9486 17.9557 17.3339C18.1782 16.7191 18.1783 16.1998 18.1041 16.0832C18.0299 15.9666 17.8709 15.9136 17.6059 15.7864Z" fill="#1DC919"/>
</svg>
