<svg width="59" height="55" viewBox="0 0 59 55" fill="none" xmlns="http://www.w3.org/2000/svg">
<path d="M3.07346 47.4797H33.5783C34.9808 47.4797 36.1221 46.3384 36.1221 44.936V12.7149C36.1221 12.6759 36.1051 12.642 36.1 12.6047C36.0953 12.5691 36.0879 12.534 36.078 12.4996C36.0448 12.355 35.9733 12.2221 35.8711 12.1146L24.0019 0.245383C23.8674 0.118328 23.6955 0.0380404 23.5118 0.0164439C23.4762 0.0130522 23.4422 -0.00390625 23.4032 -0.00390625H3.06328C1.65573 -0.00390625 0.509338 1.1374 0.509338 2.53986V44.936C0.509338 46.3384 1.65912 47.4797 3.07346 47.4797ZM24.2512 2.8909L33.2273 11.867H25.0991C24.8742 11.867 24.6585 11.7777 24.4995 11.6187C24.3405 11.4596 24.2512 11.244 24.2512 11.0191V2.8909ZM2.20518 2.53986C2.20518 2.07181 2.59014 1.69194 3.06328 1.69194H22.5553V11.0191C22.5553 12.4215 23.6966 13.5628 25.0991 13.5628H34.4262V44.936C34.4262 45.1609 34.3369 45.3765 34.1779 45.5355C34.0189 45.6946 33.8032 45.7839 33.5783 45.7839H3.07346C2.96077 45.7852 2.84892 45.7644 2.74429 45.7225C2.63967 45.6806 2.54432 45.6185 2.46369 45.5398C2.38306 45.461 2.31873 45.3672 2.27438 45.2636C2.23002 45.16 2.20651 45.0487 2.20518 44.936V2.53986Z" fill="white"/>
<path d="M8.14065 20.3464H28.4908C28.7157 20.3464 28.9313 20.2571 29.0904 20.0981C29.2494 19.939 29.3387 19.7234 29.3387 19.4985C29.3387 19.2736 29.2494 19.0579 29.0904 18.8989C28.9313 18.7399 28.7157 18.6506 28.4908 18.6506H8.14065C7.91576 18.6506 7.70009 18.7399 7.54108 18.8989C7.38206 19.0579 7.29272 19.2736 7.29272 19.4985C7.29272 19.7234 7.38206 19.939 7.54108 20.0981C7.70009 20.2571 7.91576 20.3464 8.14065 20.3464ZM8.14065 27.1298H28.4908C28.7157 27.1298 28.9313 27.0405 29.0904 26.8814C29.2494 26.7224 29.3387 26.5067 29.3387 26.2819C29.3387 26.057 29.2494 25.8413 29.0904 25.6823C28.9313 25.5233 28.7157 25.4339 28.4908 25.4339H8.14065C7.91576 25.4339 7.70009 25.5233 7.54108 25.6823C7.38206 25.8413 7.29272 26.057 7.29272 26.2819C7.29272 26.5067 7.38206 26.7224 7.54108 26.8814C7.70009 27.0405 7.91576 27.1298 8.14065 27.1298ZM8.14065 13.563H16.6199C16.8448 13.563 17.0604 13.4737 17.2194 13.3147C17.3785 13.1557 17.4678 12.94 17.4678 12.7151C17.4678 12.4902 17.3785 12.2746 17.2194 12.1155C17.0604 11.9565 16.8448 11.8672 16.6199 11.8672H8.14065C7.91576 11.8672 7.70009 11.9565 7.54108 12.1155C7.38206 12.2746 7.29272 12.4902 7.29272 12.7151C7.29272 12.94 7.38206 13.1557 7.54108 13.3147C7.70009 13.4737 7.91576 13.563 8.14065 13.563ZM8.14065 33.9132H28.4908C28.7157 33.9132 28.9313 33.8238 29.0904 33.6648C29.2494 33.5058 29.3387 33.2901 29.3387 33.0652C29.3387 32.8404 29.2494 32.6247 29.0904 32.4657C28.9313 32.3067 28.7157 32.2173 28.4908 32.2173H8.14065C7.91576 32.2173 7.70009 32.3067 7.54108 32.4657C7.38206 32.6247 7.29272 32.8404 7.29272 33.0652C7.29272 33.2901 7.38206 33.5058 7.54108 33.6648C7.70009 33.8238 7.91576 33.9132 8.14065 33.9132ZM8.14065 40.6965H28.4908C28.7157 40.6965 28.9313 40.6072 29.0904 40.4482C29.2494 40.2892 29.3387 40.0735 29.3387 39.8486C29.3387 39.6237 29.2494 39.4081 29.0904 39.249C28.9313 39.09 28.7157 39.0007 28.4908 39.0007H8.14065C7.91576 39.0007 7.70009 39.09 7.54108 39.249C7.38206 39.4081 7.29272 39.6237 7.29272 39.8486C7.29272 40.0735 7.38206 40.2892 7.54108 40.4482C7.70009 40.6072 7.91576 40.6965 8.14065 40.6965Z" fill="white"/>
<path d="M36.97 8.47514H44.6013V17.8023C44.6013 19.2047 45.7426 20.3461 47.145 20.3461H56.4722V51.7192C56.4722 51.9441 56.3829 52.1597 56.2238 52.3187C56.0648 52.4778 55.8491 52.5671 55.6243 52.5671H25.1194C25.0067 52.5684 24.8949 52.5476 24.7903 52.5057C24.6856 52.4638 24.5903 52.4017 24.5097 52.323C24.429 52.2442 24.3647 52.1504 24.3203 52.0468C24.276 51.9432 24.2525 51.8319 24.2511 51.7192V50.0233C24.2511 49.7984 24.1618 49.5828 24.0028 49.4238C23.8438 49.2647 23.6281 49.1754 23.4032 49.1754C23.1783 49.1754 22.9627 49.2647 22.8036 49.4238C22.6446 49.5828 22.5553 49.7984 22.5553 50.0233V51.7192C22.5553 53.1216 23.7051 54.2629 25.1194 54.2629H55.6243C57.0267 54.2629 58.168 53.1216 58.168 51.7192V19.4981C58.168 19.4591 58.1511 19.4252 58.146 19.3879C58.1413 19.3524 58.1339 19.3172 58.1239 19.2828C58.0907 19.1382 58.0193 19.0053 57.917 18.8978L46.0478 7.02859C45.9143 6.90048 45.7418 6.82052 45.5577 6.80134C45.5221 6.79626 45.4882 6.7793 45.4492 6.7793H36.97C36.7451 6.7793 36.5294 6.86863 36.3704 7.02765C36.2114 7.18666 36.1221 7.40234 36.1221 7.62722C36.1221 7.8521 36.2114 8.06777 36.3704 8.22679C36.5294 8.38581 36.7451 8.47514 36.97 8.47514ZM47.145 18.6502C46.9202 18.6502 46.7045 18.5609 46.5455 18.4019C46.3865 18.2428 46.2971 18.0272 46.2971 17.8023V9.6741L55.2732 18.6502H47.145Z" fill="white"/>
<path d="M40.3617 27.1294H50.5367C50.7616 27.1294 50.9773 27.0401 51.1363 26.8811C51.2953 26.7221 51.3846 26.5064 51.3846 26.2815C51.3846 26.0566 51.2953 25.841 51.1363 25.6819C50.9773 25.5229 50.7616 25.4336 50.5367 25.4336H40.3617C40.1368 25.4336 39.9211 25.5229 39.7621 25.6819C39.6031 25.841 39.5137 26.0566 39.5137 26.2815C39.5137 26.5064 39.6031 26.7221 39.7621 26.8811C39.9211 27.0401 40.1368 27.1294 40.3617 27.1294ZM40.3617 33.9128H50.5367C50.7616 33.9128 50.9773 33.8235 51.1363 33.6645C51.2953 33.5054 51.3846 33.2898 51.3846 33.0649C51.3846 32.84 51.2953 32.6243 51.1363 32.4653C50.9773 32.3063 50.7616 32.217 50.5367 32.217H40.3617C40.1368 32.217 39.9211 32.3063 39.7621 32.4653C39.6031 32.6243 39.5137 32.84 39.5137 33.0649C39.5137 33.2898 39.6031 33.5054 39.7621 33.6645C39.9211 33.8235 40.1368 33.9128 40.3617 33.9128ZM40.3617 40.6962H50.5367C50.7616 40.6962 50.9773 40.6069 51.1363 40.4478C51.2953 40.2888 51.3846 40.0732 51.3846 39.8483C51.3846 39.6234 51.2953 39.4077 51.1363 39.2487C50.9773 39.0897 50.7616 39.0003 50.5367 39.0003H40.3617C40.1368 39.0003 39.9211 39.0897 39.7621 39.2487C39.6031 39.4077 39.5137 39.6234 39.5137 39.8483C39.5137 40.0732 39.6031 40.2888 39.7621 40.4478C39.9211 40.6069 40.1368 40.6962 40.3617 40.6962ZM40.3617 47.4796H50.5367C50.7616 47.4796 50.9773 47.3902 51.1363 47.2312C51.2953 47.0722 51.3846 46.8565 51.3846 46.6316C51.3846 46.4068 51.2953 46.1911 51.1363 46.0321C50.9773 45.8731 50.7616 45.7837 50.5367 45.7837H40.3617C40.1368 45.7837 39.9211 45.8731 39.7621 46.0321C39.6031 46.1911 39.5137 46.4068 39.5137 46.6316C39.5137 46.8565 39.6031 47.0722 39.7621 47.2312C39.9211 47.3902 40.1368 47.4796 40.3617 47.4796Z" fill="white"/>
</svg>
