<svg width="354" height="95" viewBox="0 0 354 95" fill="none" xmlns="http://www.w3.org/2000/svg">
<path fill-rule="evenodd" clip-rule="evenodd" d="M0.858215 67.4355C4.39975 83.0438 18.3582 94.6957 35.0381 94.6957H134.991C151.671 94.6957 165.629 83.0438 169.171 67.4355H167.838C164.322 82.3206 150.95 93.3976 134.991 93.3976H35.0381C19.0789 93.3976 5.70687 82.3206 2.19093 67.4355H0.858215Z" fill="#7EC7E7"/>
<path fill-rule="evenodd" clip-rule="evenodd" d="M184.757 27.5664C188.298 11.9581 202.257 0.306252 218.937 0.306252H318.889C335.569 0.306252 349.528 11.9581 353.069 27.5664H351.737C348.221 12.6813 334.849 1.60434 318.889 1.60434H218.937C202.978 1.60434 189.606 12.6813 186.09 27.5664H184.757Z" fill="#7EC7E7"/>
</svg>
